<svg width="41" height="30" viewBox="0 0 41 30" fill="none" xmlns="http://www.w3.org/2000/svg">
<path d="M8.625 0.375C13.3867 0.375 17.25 4.23828 17.25 9V17.625C17.25 24.0039 12.0391 29.125 5.75 29.125C4.13281 29.125 2.875 27.8672 2.875 26.25C2.875 24.7227 4.13281 23.375 5.75 23.375C8.89453 23.375 11.5 20.8594 11.5 17.625V17.1758C10.5117 17.4453 9.61328 17.625 8.625 17.625C3.77344 17.625 0 13.8516 0 9C0 4.23828 3.77344 0.375 8.625 0.375ZM40.25 9V17.625C40.25 24.0039 35.0391 29.125 28.75 29.125C27.1328 29.125 25.875 27.8672 25.875 26.25C25.875 24.7227 27.1328 23.375 28.75 23.375C31.8945 23.375 34.5 20.8594 34.5 17.625V17.1758C33.5117 17.4453 32.6133 17.625 31.625 17.625C26.7734 17.625 23 13.8516 23 9C23 4.23828 26.7734 0.375 31.625 0.375C36.3867 0.375 40.25 4.23828 40.25 9Z" fill="#EC4814"/>
</svg>
