<svg width="65" height="65" viewBox="0 0 65 65" fill="none" xmlns="http://www.w3.org/2000/svg">
<path opacity="0.99" d="M3.91992 6.6325V5.67578C3.91992 5.00238 4.18743 4.35656 4.6636 3.88039C5.13976 3.40423 5.78558 3.13672 6.45898 3.13672H59.9789C60.6523 3.13672 61.2981 3.40423 61.7743 3.88039C62.2504 4.35656 62.5179 5.00238 62.5179 5.67578V48.6982C62.5179 49.3716 62.2504 50.0174 61.7743 50.4935C61.2981 50.9697 60.6523 51.2372 59.9789 51.2372H6.45898C5.78558 51.2372 5.13976 50.9697 4.6636 50.4935C4.18743 50.0174 3.91992 49.3716 3.91992 48.6982V25.0052" fill="#E4E3E1"/>
<path d="M14.8963 3.13672H6.45898C5.78558 3.13672 5.13976 3.40423 4.6636 3.88039C4.18743 4.35656 3.91992 5.00238 3.91992 5.67578V48.6982C3.91992 49.3716 4.18743 50.0174 4.6636 50.4935C5.13976 50.9697 5.78558 51.2372 6.45898 51.2372H25.3496C20.8108 49.7549 16.3105 47.8857 14.4316 45.8636C10.0228 41.1318 11.6549 22.198 11.8184 11.7518C11.8855 7.45363 13.2794 4.78813 14.8963 3.13672Z" fill="#D1D0CF"/>
<path d="M49.1344 59.3684V59.3734C49.1344 59.8795 48.9335 60.3648 48.5758 60.7229C48.2182 61.0809 47.7331 61.2823 47.227 61.2828H19.2141C18.9633 61.2829 18.715 61.2335 18.4833 61.1376C18.2516 61.0417 18.0411 60.901 17.8638 60.7237C17.6865 60.5464 17.5458 60.3359 17.4499 60.1042C17.354 59.8725 17.3046 59.6242 17.3047 59.3734V59.3684C17.3046 59.1176 17.354 58.8693 17.4499 58.6376C17.5458 58.4059 17.6865 58.1954 17.8638 58.0181C18.0411 57.8408 18.2516 57.7001 18.4833 57.6042C18.715 57.5083 18.9633 57.4589 19.2141 57.459H21.8389C22.7682 57.459 23.6595 57.0898 24.3166 56.4327C24.9737 55.7756 25.3429 54.8844 25.3429 53.9551V51.2383H41.0952V53.9551C41.0952 54.8844 41.4644 55.7756 42.1215 56.4327C42.7786 57.0898 43.6698 57.459 44.5991 57.459H47.227C47.7331 57.4595 48.2182 57.6609 48.5758 58.0189C48.9335 58.377 49.1344 58.8623 49.1344 59.3684Z" fill="#525468"/>
<path d="M3.91992 42.8359V48.6976C3.91992 49.371 4.18743 50.0168 4.6636 50.493C4.89937 50.7288 5.17927 50.9158 5.48733 51.0434C5.79538 51.171 6.12555 51.2367 6.45898 51.2367H59.9789C60.6523 51.2367 61.2981 50.9692 61.7743 50.493C62.2504 50.0168 62.5179 49.371 62.5179 48.6976V42.8359H3.91992Z" fill="#525468"/>
<path d="M11.1076 24.4418C15.8712 24.4418 19.7328 20.5802 19.7328 15.8166C19.7328 11.053 15.8712 7.19141 11.1076 7.19141C6.34405 7.19141 2.48242 11.053 2.48242 15.8166C2.48242 20.5802 6.34405 24.4418 11.1076 24.4418Z" fill="#FFE183"/>
<path d="M55.4088 27.0352H31.6777C31.1168 27.0352 30.6621 27.4899 30.6621 28.0508V37.9628C30.6621 38.5237 31.1168 38.9784 31.6777 38.9784H55.4088C55.9697 38.9784 56.4245 38.5237 56.4245 37.9628V28.0508C56.4245 27.4899 55.9697 27.0352 55.4088 27.0352Z" fill="#4B98D4"/>
<path d="M25.0938 27.1875H11.1396C10.5787 27.1875 10.124 27.6422 10.124 28.2031V37.9623C10.124 38.5232 10.5787 38.9779 11.1396 38.9779H25.0938C25.6547 38.9779 26.1095 38.5232 26.1095 37.9623V28.2031C26.1095 27.6422 25.6547 27.1875 25.0938 27.1875Z" fill="#72BDF6"/>
<path d="M25.3496 51.2348C20.8108 49.7525 16.3105 47.8832 14.4316 45.8611C13.6881 44.9769 13.1418 43.9442 12.829 42.832H3.91992V48.6957C3.91992 49.3691 4.18743 50.015 4.6636 50.4911C5.13976 50.9673 5.78558 51.2348 6.45898 51.2348H25.3496Z" fill="#424451"/>
<path d="M25.3432 51.2383V53.9551C25.3432 54.0348 25.3361 54.1125 25.3311 54.1912H41.1073C41.1022 54.1125 41.0956 54.0348 41.0956 53.9551V51.2383H25.3432Z" fill="#424451"/>
<path d="M12.4768 7.31211C12.0474 8.75275 11.8251 10.2471 11.8166 11.7504C11.7607 15.2949 11.5373 19.8145 11.4357 24.4305C11.3291 24.4305 11.2174 24.4457 11.1057 24.4457C8.81812 24.4457 6.62427 23.537 5.00673 21.9194C3.38919 20.3019 2.48047 18.1081 2.48047 15.8205C2.48047 13.533 3.38919 11.3391 5.00673 9.72157C6.62427 8.10404 8.81812 7.19531 11.1057 7.19531C11.5651 7.19803 12.0235 7.23709 12.4768 7.31211Z" fill="#FFC964"/>
<path d="M11.1401 38.9779H11.9739C11.4944 35.0671 11.3011 31.1265 11.3955 27.1875H11.1416C10.8722 27.1875 10.6139 27.2945 10.4234 27.485C10.233 27.6754 10.126 27.9338 10.126 28.2031V37.9623C10.126 38.2314 10.2328 38.4895 10.4229 38.6799C10.613 38.8703 10.871 38.9775 11.1401 38.9779Z" fill="#5AB0E5"/>
<path d="M59.9783 2.62891H6.45996C5.65188 2.62891 4.8769 2.94992 4.3055 3.52132C3.7341 4.09272 3.41309 4.8677 3.41309 5.67578V6.63047C3.41309 6.76515 3.46659 6.89431 3.56182 6.98955C3.65705 7.08478 3.78622 7.13828 3.9209 7.13828C4.05558 7.13828 4.18474 7.08478 4.27998 6.98955C4.37521 6.89431 4.42871 6.76515 4.42871 6.63047V5.67578C4.42871 5.13706 4.64272 4.6204 5.02365 4.23947C5.40458 3.85854 5.92124 3.64453 6.45996 3.64453H59.9783C60.517 3.64453 61.0337 3.85854 61.4146 4.23947C61.7956 4.6204 62.0096 5.13706 62.0096 5.67578V42.3297H4.42871V25.0031C4.42871 24.8684 4.37521 24.7393 4.27998 24.644C4.18474 24.5488 4.05558 24.4953 3.9209 24.4953C3.78622 24.4953 3.65705 24.5488 3.56182 24.644C3.46659 24.7393 3.41309 24.8684 3.41309 25.0031V48.6977C3.41309 49.5057 3.7341 50.2807 4.3055 50.8521C4.8769 51.4235 5.65188 51.7445 6.45996 51.7445H24.8377V53.9535C24.8359 54.7485 24.519 55.5103 23.9564 56.0719C23.3938 56.6336 22.6315 56.9492 21.8365 56.9496H19.2162C18.5745 56.9496 17.959 57.2045 17.5052 57.6583C17.0514 58.1121 16.7965 58.7276 16.7965 59.3693C16.7965 60.0111 17.0514 60.6266 17.5052 61.0803C17.959 61.5341 18.5745 61.7891 19.2162 61.7891H47.2271C47.8678 61.7876 48.4817 61.5324 48.9347 61.0795C49.3877 60.6265 49.6429 60.0125 49.6443 59.3719V59.3668C49.6429 58.7262 49.3877 58.1122 48.9347 57.6592C48.4817 57.2062 47.8678 56.9511 47.2271 56.9496H44.6018C44.2083 56.9496 43.8187 56.8721 43.4552 56.7215C43.0917 56.571 42.7614 56.3503 42.4832 56.0721C42.205 55.7939 41.9843 55.4636 41.8337 55.1001C41.6832 54.7366 41.6057 54.347 41.6057 53.9535V51.7445H59.9783C60.7864 51.7445 61.5614 51.4235 62.1328 50.8521C62.7042 50.2807 63.0252 49.5057 63.0252 48.6977V5.67578C63.0252 4.8677 62.7042 4.09272 62.1328 3.52132C61.5614 2.94992 60.7864 2.62891 59.9783 2.62891ZM44.6018 57.9652H47.2271C47.5986 57.966 47.9546 58.114 48.2173 58.3766C48.48 58.6393 48.6279 58.9953 48.6287 59.3668V59.3719C48.6279 59.7433 48.48 60.0994 48.2173 60.362C47.9546 60.6247 47.5986 60.7726 47.2271 60.7734H19.2162C18.8438 60.7734 18.4867 60.6255 18.2234 60.3622C17.96 60.0989 17.8121 59.7417 17.8121 59.3693C17.8121 58.9969 17.96 58.6398 18.2234 58.3765C18.4867 58.1132 18.8438 57.9652 19.2162 57.9652H21.8365C22.9009 57.965 23.9216 57.5424 24.6747 56.7902C25.4278 56.0381 25.8517 55.0179 25.8533 53.9535V51.7445H40.59V53.9535C40.59 55.0175 41.0127 56.0379 41.765 56.7902C42.5174 57.5426 43.5378 57.9652 44.6018 57.9652ZM62.0096 48.6977C62.0096 49.2364 61.7956 49.753 61.4146 50.134C61.0337 50.5149 60.517 50.7289 59.9783 50.7289H6.45996C5.92124 50.7289 5.40458 50.5149 5.02365 50.134C4.64272 49.753 4.42871 49.2364 4.42871 48.6977V43.3453H62.0096V48.6977Z" fill="black"/>
<path d="M11.1061 6.6875C9.29972 6.688 7.5341 7.22413 6.03246 8.2281C4.53082 9.23206 3.36062 10.6588 2.66983 12.3278C1.97904 13.9968 1.79868 15.8332 2.15157 17.6048C2.50447 19.3763 3.37475 21.0034 4.65238 22.2803C5.93001 23.5572 7.5576 24.4266 9.32933 24.7785C11.1011 25.1304 12.9373 24.9491 14.606 24.2573C16.2746 23.5656 17.7007 22.3946 18.7038 20.8924C19.707 19.3902 20.2421 17.6243 20.2416 15.818C20.2381 13.3966 19.2743 11.0755 17.5617 9.36382C15.8491 7.65213 13.5274 6.68965 11.1061 6.6875ZM11.1061 23.9379C9.50081 23.9374 7.93175 23.4609 6.59724 22.5688C5.26273 21.6767 4.2227 20.4089 3.60863 18.9257C2.99456 17.4426 2.83402 15.8106 3.14731 14.2363C3.4606 12.6619 4.23366 11.2157 5.36874 10.0807C6.50382 8.94557 7.94997 8.17251 9.52435 7.85922C11.0987 7.54593 12.7307 7.70647 14.2138 8.32054C15.697 8.93461 16.9648 9.97464 17.8569 11.3091C18.749 12.6437 19.2255 14.2127 19.226 15.818C19.2246 17.9711 18.3687 20.0356 16.8462 21.5581C15.3237 23.0806 13.2592 23.9365 11.1061 23.9379Z" fill="black"/>
<path d="M13.1067 17.2723C13.1281 17.564 13.075 17.8564 12.9524 18.1219C12.8298 18.3875 12.6418 18.6176 12.4059 18.7906C12.1676 18.9495 11.8971 19.0535 11.6137 19.0953V20.1465C11.6137 20.2812 11.5602 20.4103 11.465 20.5056C11.3698 20.6008 11.2406 20.6543 11.1059 20.6543C10.9712 20.6543 10.8421 20.6008 10.7469 20.5056C10.6516 20.4103 10.5981 20.2812 10.5981 20.1465V19.1004C10.2032 19.047 9.81505 18.9516 9.4403 18.816C9.37428 18.7955 9.31313 18.7618 9.26061 18.7168C9.20808 18.6719 9.16529 18.6166 9.13486 18.5546C9.10443 18.4925 9.08699 18.4249 9.08361 18.3558C9.08024 18.2868 9.091 18.2177 9.11524 18.153C9.13947 18.0883 9.17668 18.0291 9.22456 17.9793C9.27245 17.9294 9.33002 17.8898 9.39373 17.863C9.45745 17.8362 9.52597 17.8226 9.5951 17.8232C9.66423 17.8238 9.73252 17.8385 9.79577 17.8664C10.216 18.0208 10.6584 18.1065 11.1059 18.1203C11.3535 18.1055 11.597 18.0507 11.827 17.9578C11.893 17.9121 12.0911 17.7699 12.0911 17.2723C12.0911 16.7289 11.7204 16.5207 10.8774 16.1855C10.1309 15.8859 9.11022 15.4797 9.11022 14.2914C9.09262 14.0206 9.14284 13.7497 9.25634 13.5032C9.36984 13.2567 9.54302 13.0424 9.76022 12.8797C10.0101 12.7051 10.2968 12.5904 10.5981 12.5445V11.4883C10.5981 11.3536 10.6516 11.2244 10.7469 11.1292C10.8421 11.034 10.9712 10.9805 11.1059 10.9805C11.2406 10.9805 11.3698 11.034 11.465 11.1292C11.5602 11.2244 11.6137 11.3536 11.6137 11.4883V12.5242C11.9698 12.5638 12.3216 12.6352 12.6649 12.7375C12.7287 12.7577 12.7879 12.7903 12.839 12.8334C12.8901 12.8765 12.9323 12.9294 12.9629 12.9888C12.9936 13.0483 13.0122 13.1132 13.0177 13.1799C13.0232 13.2466 13.0155 13.3137 12.995 13.3773C12.9525 13.505 12.8618 13.6109 12.7423 13.6726C12.6227 13.7343 12.4838 13.7468 12.3551 13.7074C11.9504 13.5823 11.5295 13.5173 11.1059 13.5145C10.8446 13.5013 10.5851 13.5649 10.3594 13.6973C10.2732 13.7682 10.2065 13.8601 10.1656 13.964C10.1247 14.068 10.111 14.1807 10.1258 14.2914C10.1258 14.7434 10.4508 14.9211 11.2532 15.241C12.0352 15.5559 13.1067 15.9824 13.1067 17.2723Z" fill="black"/>
<path d="M42.1827 9.73828H26.3359C26.2013 9.73828 26.0721 9.68478 25.9769 9.58955C25.8816 9.49431 25.8281 9.36515 25.8281 9.23047C25.8281 9.09579 25.8816 8.96662 25.9769 8.87139C26.0721 8.77616 26.2013 8.72266 26.3359 8.72266H42.1827C42.3174 8.72266 42.4466 8.77616 42.5418 8.87139C42.637 8.96662 42.6905 9.09579 42.6905 9.23047C42.6905 9.36515 42.637 9.49431 42.5418 9.58955C42.4466 9.68478 42.3174 9.73828 42.1827 9.73828Z" fill="black"/>
<path d="M42.1827 16.1562H26.3359C26.2013 16.1562 26.0721 16.1027 25.9769 16.0075C25.8816 15.9123 25.8281 15.7831 25.8281 15.6484C25.8281 15.5138 25.8816 15.3846 25.9769 15.2894C26.0721 15.1941 26.2013 15.1406 26.3359 15.1406H42.1827C42.3174 15.1406 42.4466 15.1941 42.5418 15.2894C42.637 15.3846 42.6905 15.5138 42.6905 15.6484C42.6905 15.7831 42.637 15.9123 42.5418 16.0075C42.4466 16.1027 42.3174 16.1562 42.1827 16.1562Z" fill="black"/>
<path d="M56.4238 23.2734H26.3359C26.2013 23.2734 26.0721 23.2199 25.9769 23.1247C25.8816 23.0295 25.8281 22.9003 25.8281 22.7656C25.8281 22.6309 25.8816 22.5018 25.9769 22.4065C26.0721 22.3113 26.2013 22.2578 26.3359 22.2578H56.4238C56.5585 22.2578 56.6877 22.3113 56.7829 22.4065C56.8781 22.5018 56.9316 22.6309 56.9316 22.7656C56.9316 22.9003 56.8781 23.0295 56.7829 23.1247C56.6877 23.2199 56.5585 23.2734 56.4238 23.2734Z" fill="black"/>
<path d="M55.4078 26.5273H31.6777C31.2741 26.5285 30.8873 26.6894 30.6018 26.9749C30.3164 27.2603 30.1555 27.6471 30.1543 28.0508V37.9633C30.1555 38.367 30.3164 38.7537 30.6018 39.0392C30.8873 39.3246 31.2741 39.4855 31.6777 39.4867H55.4078C55.8119 39.4867 56.1993 39.3262 56.485 39.0405C56.7707 38.7548 56.9312 38.3673 56.9312 37.9633V28.0508C56.9312 27.6467 56.7707 27.2592 56.485 26.9735C56.1993 26.6878 55.8119 26.5273 55.4078 26.5273ZM31.6777 38.4711C31.5431 38.4711 31.4139 38.4176 31.3187 38.3224C31.2234 38.2271 31.1699 38.098 31.1699 37.9633V34.3629L33.5414 38.4711H31.6777ZM34.7145 38.4711L31.1699 32.3266V28.782L36.766 38.4711H34.7145ZM37.9391 38.4711L31.632 27.548C31.6469 27.5439 31.6623 27.5421 31.6777 27.543H33.6836L39.9906 38.4711H37.9391ZM41.1637 38.4711L34.8566 27.543H36.8777L43.1848 38.4711H41.1637ZM44.3578 38.4711L38.0508 27.543H40.0871L46.3891 38.4711H44.3578ZM47.5672 38.4711L41.2602 27.543H43.2914L49.5984 38.4711H47.5672ZM50.7715 38.4711L44.4645 27.543H46.516L52.823 38.4711H50.7715ZM55.4078 38.4711H53.9961L47.6891 27.543H49.7406L55.8699 38.1664C55.8311 38.2568 55.7666 38.3338 55.6845 38.388C55.6024 38.4421 55.5062 38.471 55.4078 38.4711ZM55.9156 36.2113L50.9137 27.543H52.9348L55.9156 32.7074V36.2113ZM55.9156 30.6762L54.1078 27.543H55.4078C55.5425 27.543 55.6717 27.5965 55.7669 27.6917C55.8621 27.7869 55.9156 27.9161 55.9156 28.0508V30.6762Z" fill="black"/>
<path d="M25.0963 26.6797H11.1416C10.7376 26.6797 10.3501 26.8402 10.0644 27.1259C9.77867 27.4116 9.61816 27.7991 9.61816 28.2031V37.9633C9.61816 38.3673 9.77867 38.7548 10.0644 39.0405C10.3501 39.3262 10.7376 39.4867 11.1416 39.4867H25.0963C25.5 39.4855 25.8867 39.3246 26.1722 39.0392C26.4576 38.7537 26.6185 38.367 26.6197 37.9633V28.2031C26.6185 27.7995 26.4576 27.4127 26.1722 27.1272C25.8867 26.8418 25.5 26.6809 25.0963 26.6797ZM11.1416 38.4711C11.0069 38.4711 10.8778 38.4176 10.7825 38.3224C10.6873 38.2271 10.6338 38.098 10.6338 37.9633V34.957L12.66 38.4711H11.1416ZM13.8381 38.4711L10.6338 32.9258V29.4219L15.8592 38.4711H13.8381ZM17.0322 38.4711L10.8623 27.7816C10.9438 27.7238 11.0417 27.6935 11.1416 27.6953H12.8479L19.0686 38.4711H17.0322ZM20.2416 38.4711L14.0209 27.6953H16.0572L22.2729 38.4711H20.2416ZM25.0963 38.4711H23.4459L17.2303 27.6953H19.2768L25.4264 38.3492C25.3344 38.4279 25.2173 38.4711 25.0963 38.4711ZM25.6041 36.6176L20.4549 27.6953H22.5014L25.6041 33.068V36.6176ZM25.6041 31.0418L23.6744 27.6953H25.0963C25.231 27.6953 25.3601 27.7488 25.4554 27.844C25.5506 27.9393 25.6041 28.0684 25.6041 28.2031V31.0418Z" fill="black"/>
</svg>
