<svg width="65" height="65" viewBox="0 0 65 65" fill="none" xmlns="http://www.w3.org/2000/svg">
<path d="M58.642 35.3027V41.5036C58.642 41.6819 58.5951 41.857 58.5059 42.0114C58.4168 42.1658 58.2886 42.294 58.1342 42.3831C57.9798 42.4723 57.8047 42.5192 57.6264 42.5192C57.4481 42.5192 57.273 42.4723 57.1186 42.3831L51.3255 39.0387C50.8596 38.7676 50.3187 38.6543 49.7832 38.7157C49.2245 38.7815 48.6624 38.8144 48.0998 38.8142C44.7537 38.8181 41.5068 37.6781 38.8975 35.5834C36.2882 33.4887 34.4732 30.5651 33.7536 27.2973C33.0339 24.0295 33.4528 20.6139 34.9407 17.6168C36.4286 14.6198 38.8963 12.2213 41.9344 10.8191C44.9725 9.41699 48.3987 9.09537 51.6447 9.90764C54.8907 10.7199 57.7616 12.6172 59.7813 15.285C61.801 17.9528 62.8482 21.2308 62.7492 24.5755C62.6503 27.9201 61.4111 31.1304 59.2372 33.6741C58.8514 34.1289 58.6404 34.7063 58.642 35.3027Z" fill="#FFE183"/>
<path d="M46.6502 38.7324V16.9102C46.6502 16.2368 46.3827 15.5909 45.9065 15.1148C45.4304 14.6386 44.7845 14.3711 44.1111 14.3711H37.1379C35.334 16.3913 34.1249 18.8716 33.6446 21.537C33.1643 24.2023 33.4314 26.9487 34.4165 29.4715C35.4016 31.9943 37.0661 34.195 39.2255 35.8297C41.3848 37.4643 43.9547 38.469 46.6502 38.7324Z" fill="#FFC964"/>
<path d="M40.4113 46.5951H32.9332C32.5705 46.5952 32.212 46.673 31.8818 46.8234C31.5517 46.9737 31.2576 47.193 31.0193 47.4665L24.2872 55.1914C24.1625 55.3344 24.0001 55.4397 23.8186 55.4951C23.637 55.5506 23.4436 55.5541 23.2601 55.5052C23.0767 55.4563 22.9107 55.3569 22.7808 55.2184C22.651 55.0799 22.5626 54.9078 22.5256 54.7216L21.3201 48.6406C21.2058 48.064 20.8951 47.545 20.4408 47.172C19.9866 46.7989 19.417 46.5951 18.8293 46.5951H4.78418C4.11078 46.5951 3.46496 46.3276 2.98879 45.8514C2.51262 45.3753 2.24512 44.7295 2.24512 44.0561V19.3789C2.24512 18.7055 2.51262 18.0597 2.98879 17.5835C3.46496 17.1074 4.11078 16.8398 4.78418 16.8398H40.4113C40.7447 16.8398 41.0749 16.9055 41.383 17.0331C41.691 17.1607 41.9709 17.3477 42.2067 17.5835C42.4425 17.8193 42.6295 18.0992 42.7571 18.4072C42.8847 18.7153 42.9504 19.0455 42.9504 19.3789V44.0586C42.9497 44.7316 42.6819 45.3767 42.2058 45.8523C41.7297 46.328 41.0843 46.5951 40.4113 46.5951Z" fill="#ED5454"/>
<path d="M10.8007 16.8398H4.78418C4.11078 16.8398 3.46496 17.1074 2.98879 17.5835C2.51262 18.0597 2.24512 18.7055 2.24512 19.3789V44.0586C2.24512 44.732 2.51262 45.3778 2.98879 45.854C3.46496 46.3301 4.11078 46.5977 4.78418 46.5977H18.8293C19.417 46.5976 19.9866 46.8015 20.4408 47.1745C20.8951 47.5475 21.2058 48.0666 21.3201 48.6431L22.5256 54.7242C22.5626 54.9104 22.651 55.0825 22.7808 55.221C22.9107 55.3595 23.0767 55.4588 23.2601 55.5077C23.4435 55.5566 23.637 55.5531 23.8185 55.4977C24.0001 55.4422 24.1625 55.337 24.2872 55.1939L28.7022 50.128C28.5082 48.7472 28.236 47.2644 27.8571 45.71C25.8985 37.6525 13.9289 43.0932 9.1407 29.6002C6.79258 22.9829 8.47648 19.092 10.8007 16.8398Z" fill="#EA3F3F"/>
<path d="M23.5265 56.0485C23.3924 56.0489 23.2587 56.0318 23.1289 55.9978C22.8532 55.9253 22.6035 55.7765 22.4085 55.5684C22.2136 55.3604 22.0813 55.1015 22.027 54.8217L20.8204 48.7396C20.7283 48.2788 20.4795 47.864 20.1164 47.5657C19.7533 47.2674 19.2982 47.1039 18.8282 47.1029H4.78418C3.97635 47.1021 3.20183 46.7809 2.6306 46.2096C2.05938 45.6384 1.73811 44.8639 1.7373 44.056V19.3789C1.73825 18.5711 2.05956 17.7967 2.63075 17.2255C3.20195 16.6543 3.97639 16.333 4.78418 16.332H40.4113C41.2191 16.333 41.9935 16.6543 42.5647 17.2255C43.1359 17.7967 43.4572 18.5711 43.4582 19.3789V44.0586C43.4572 44.8664 43.1359 45.6408 42.5647 46.212C41.9935 46.7832 41.2191 47.1045 40.4113 47.1055H32.9338C32.6435 47.1055 32.3566 47.1677 32.0924 47.288C31.8282 47.4083 31.5928 47.5838 31.4022 47.8027L24.6701 55.525C24.5281 55.6891 24.3525 55.8207 24.1552 55.911C23.9579 56.0014 23.7435 56.0482 23.5265 56.0485ZM4.78418 17.3477C4.24546 17.3477 3.7288 17.5617 3.34787 17.9426C2.96694 18.3235 2.75293 18.8402 2.75293 19.3789V44.0586C2.75293 44.5973 2.96694 45.114 3.34787 45.4949C3.7288 45.8758 4.24546 46.0898 4.78418 46.0898H18.8298C19.5347 46.0913 20.2174 46.3365 20.7621 46.7839C21.3068 47.2313 21.6799 47.8534 21.8182 48.5446L23.0233 54.6257C23.0418 54.7188 23.0861 54.8048 23.1511 54.874C23.2161 54.9432 23.2992 54.9928 23.3909 55.0171C23.4826 55.0415 23.5794 55.0397 23.6701 55.0119C23.7609 54.9841 23.842 54.9314 23.9043 54.8598L30.6364 47.1329C30.9224 46.8046 31.2754 46.5414 31.6717 46.361C32.068 46.1806 32.4984 46.0873 32.9338 46.0873H40.4113C40.95 46.0873 41.4667 45.8733 41.8476 45.4924C42.2285 45.1114 42.4426 44.5948 42.4426 44.056V19.3789C42.4419 18.8404 42.2277 18.3241 41.8469 17.9433C41.4661 17.5626 40.9498 17.3483 40.4113 17.3477H4.78418Z" fill="black"/>
<path d="M19.8861 36.9727H8.33789C8.20321 36.9727 8.07405 36.9192 7.97881 36.8239C7.88358 36.7287 7.83008 36.5995 7.83008 36.4648C7.83008 36.3302 7.88358 36.201 7.97881 36.1058C8.07405 36.0105 8.20321 35.957 8.33789 35.957H19.8861C20.0207 35.957 20.1499 36.0105 20.2451 36.1058C20.3404 36.201 20.3939 36.3302 20.3939 36.4648C20.3939 36.5995 20.3404 36.7287 20.2451 36.8239C20.1499 36.9192 20.0207 36.9727 19.8861 36.9727Z" fill="black"/>
<path d="M27.0259 30.5547H8.33789C8.20321 30.5547 8.07405 30.5012 7.97881 30.406C7.88358 30.3107 7.83008 30.1816 7.83008 30.0469C7.83008 29.9122 7.88358 29.783 7.97881 29.6878C8.07405 29.5926 8.20321 29.5391 8.33789 29.5391H27.0254C27.1601 29.5391 27.2892 29.5926 27.3845 29.6878C27.4797 29.783 27.5332 29.9122 27.5332 30.0469C27.5332 30.1816 27.4797 30.3107 27.3845 30.406C27.2892 30.5012 27.1606 30.5547 27.0259 30.5547Z" fill="black"/>
<path d="M35.1864 23.4414H8.33789C8.20321 23.4414 8.07405 23.3879 7.97881 23.2927C7.88358 23.1974 7.83008 23.0683 7.83008 22.9336C7.83008 22.7989 7.88358 22.6697 7.97881 22.5745C8.07405 22.4793 8.20321 22.4258 8.33789 22.4258H35.1864C35.3211 22.4258 35.4503 22.4793 35.5455 22.5745C35.6408 22.6697 35.6943 22.7989 35.6943 22.9336C35.6943 23.0683 35.6408 23.1974 35.5455 23.2927C35.4503 23.3879 35.3211 23.4414 35.1864 23.4414Z" fill="black"/>
<path d="M57.6265 43.0278C57.3589 43.0272 57.0961 42.9561 56.8648 42.8216L51.0716 39.4772C50.7003 39.2616 50.2695 39.171 49.8427 39.2187C48.5333 39.3719 47.2095 39.3525 45.9051 39.1608C45.8377 39.1529 45.7725 39.1316 45.7134 39.098C45.6543 39.0645 45.6026 39.0195 45.5612 38.9656C45.5198 38.9117 45.4897 38.85 45.4726 38.7843C45.4555 38.7185 45.4518 38.65 45.4617 38.5828C45.4715 38.5156 45.4948 38.451 45.53 38.3929C45.5653 38.3349 45.6118 38.2844 45.6669 38.2447C45.722 38.2049 45.7845 38.1766 45.8507 38.1614C45.9169 38.1463 45.9855 38.1446 46.0524 38.1564C47.2687 38.334 48.5029 38.3521 49.7239 38.2102C50.368 38.1365 51.0188 38.2726 51.5794 38.5982L57.3726 41.9421C57.4497 41.9867 57.5372 42.0101 57.6263 42.0101C57.7154 42.0102 57.803 41.9867 57.8802 41.9422C57.9573 41.8977 58.0215 41.8337 58.0661 41.7566C58.1107 41.6794 58.1342 41.5919 58.1343 41.5028V35.302C58.1327 34.5846 58.3869 33.8901 58.8513 33.3433C61.2179 30.5574 62.4161 26.9647 62.1956 23.316C61.9751 19.6673 60.3529 16.2451 57.6681 13.7645C54.9832 11.2839 51.4436 9.93695 47.7889 10.0052C44.1341 10.0735 40.6472 11.5516 38.0569 14.1307C37.9618 14.2261 37.8326 14.2797 37.6979 14.2799C37.5632 14.28 37.434 14.2267 37.3386 14.1315C37.2432 14.0364 37.1896 13.9072 37.1895 13.7725C37.1893 13.6378 37.2427 13.5086 37.3378 13.4132C40.1134 10.6471 43.8509 9.0612 47.7687 8.98709C51.6866 8.91298 55.4813 10.3564 58.3595 13.0156C61.2377 15.6747 62.9764 19.3436 63.212 23.255C63.4476 27.1665 62.1619 31.0176 59.6237 34.003C59.3161 34.3657 59.1481 34.8263 59.1499 35.302V41.5028C59.1486 41.9065 58.9876 42.2932 58.7022 42.5786C58.4168 42.864 58.0301 43.0249 57.6265 43.0263V43.0278Z" fill="black"/>
</svg>
