<svg width="65" height="65" viewBox="0 0 65 65" fill="none" xmlns="http://www.w3.org/2000/svg">
<path d="M45.6513 40.8749C51.9821 40.8749 57.1142 35.7428 57.1142 29.4121C57.1142 23.0813 51.9821 17.9492 45.6513 17.9492C39.3206 17.9492 34.1885 23.0813 34.1885 29.4121C34.1885 35.7428 39.3206 40.8749 45.6513 40.8749Z" fill="#72BDF6"/>
<path d="M51.7315 39.1268C49.6104 32.0576 47.5629 21.1335 46.9987 18.0287C45.1959 17.8153 43.3681 18.0331 41.666 18.6641C39.9638 19.2952 38.4358 20.3215 37.2078 21.6586C35.9799 22.9957 35.087 24.6053 34.6028 26.3549C34.1186 28.1046 34.0568 29.9442 34.4226 31.7223C34.7884 33.5005 35.5713 35.1664 36.7068 36.5828C37.8423 37.9992 39.298 39.1257 40.954 39.8695C42.61 40.6134 44.419 40.9532 46.2321 40.8612C48.0452 40.7691 49.8104 40.2478 51.3826 39.3401C51.5014 39.2715 51.6162 39.1989 51.7315 39.1268Z" fill="#5AB0E5"/>
<path opacity="0.99" d="M45.6622 38.3033C43.504 38.3068 41.4181 37.5254 39.7934 36.1048C38.1687 34.6841 37.116 32.7211 36.8315 30.5817C36.5471 28.4424 37.0502 26.2725 38.2472 24.4767C39.4443 22.6808 41.2535 21.3815 43.3376 20.8209C45.4218 20.2603 47.6386 20.4767 49.5751 21.4297C51.5115 22.3827 53.0353 24.0074 53.8624 26.0008C54.6896 27.9942 54.7637 30.2204 54.0709 32.2644C53.3781 34.3084 51.9657 36.0308 50.0969 37.1104C48.748 37.888 47.2192 38.2993 45.6622 38.3033Z" fill="#E4E3E1"/>
<path d="M51.3833 39.3375C49.8443 40.2279 48.1186 40.7467 46.3438 40.8523L47.7499 43.2898C47.8343 43.436 47.9467 43.5642 48.0807 43.667C48.2146 43.7698 48.3675 43.8453 48.5306 43.889C48.6938 43.9327 48.8639 43.9438 49.0313 43.9218C49.1987 43.8998 49.3602 43.8449 49.5064 43.7605L56.1496 39.925C56.2959 39.8406 56.4242 39.7282 56.527 39.5942C56.6299 39.4602 56.7053 39.3072 56.7491 39.144C56.7928 38.9809 56.8039 38.8107 56.7818 38.6432C56.7597 38.4757 56.7049 38.3142 56.6204 38.168L55.2147 35.7305C54.236 37.2148 52.924 38.45 51.3833 39.3375Z" fill="#525468"/>
<path d="M50.4404 43.2207L57.8377 56.0329C58.0187 56.3463 58.2596 56.621 58.5467 56.8413C58.8339 57.0616 59.1616 57.2233 59.5111 57.3169C59.8607 57.4106 60.2253 57.4345 60.5842 57.3873C60.943 57.34 61.289 57.2226 61.6024 57.0416C61.9158 56.8607 62.1905 56.6197 62.4109 56.3326C62.6312 56.0455 62.7928 55.7178 62.8865 55.3682C62.9801 55.0186 63.004 54.654 62.9568 54.2952C62.9096 53.9364 62.7921 53.5904 62.6112 53.277L55.2139 40.4648L50.4404 43.2207Z" fill="#D1D0CF"/>
<path d="M50.9937 36.5118C49.5677 31.1686 48.2515 24.6595 47.5009 20.7189C46.0899 20.418 44.6268 20.4651 43.238 20.8561C41.8492 21.247 40.5765 21.9701 39.5296 22.9629C38.4827 23.9557 37.6932 25.1883 37.2292 26.5544C36.7652 27.9205 36.6406 29.3791 36.8662 30.8041C37.0919 32.2291 37.6609 33.5778 38.5243 34.7337C39.3876 35.8896 40.5193 36.8181 41.8217 37.4389C43.1241 38.0597 44.558 38.3542 45.9996 38.297C47.4412 38.2398 48.8473 37.8326 50.0963 37.1105C50.4075 36.9296 50.7071 36.7296 50.9937 36.5118Z" fill="#D1D0CF"/>
<path d="M45.3314 22.332H4.55859C3.15631 22.332 2.01953 23.4688 2.01953 24.8711V33.9335C2.01953 35.3358 3.15631 36.4726 4.55859 36.4726H45.3314C46.7337 36.4726 47.8704 35.3358 47.8704 33.9335V24.8711C47.8704 23.4688 46.7337 22.332 45.3314 22.332Z" fill="#FFE183"/>
<path d="M52.6605 41.9388C52.3517 41.1075 52.0404 40.1569 51.7307 39.125C51.6154 39.1971 51.5016 39.2712 51.3823 39.3398C49.8433 40.2303 48.1177 40.749 46.3428 40.8546L47.7489 43.2921C47.8333 43.4384 47.9457 43.5666 48.0797 43.6694C48.2136 43.7722 48.3666 43.8476 48.5297 43.8913C48.6928 43.935 48.8629 43.9462 49.0303 43.9241C49.1977 43.9021 49.3592 43.8473 49.5054 43.7629L52.6605 41.9388Z" fill="#424451"/>
<path d="M61.6027 57.0385C61.6907 56.9829 61.7754 56.9224 61.8566 56.8572C59.0367 54.6487 56.7226 49.4939 56.7226 49.4939L53.7011 44.2695C53.292 43.5201 52.9441 42.7389 52.6606 41.9336L50.4404 43.2153L57.8377 56.0274C58.0185 56.341 58.2594 56.6159 58.5464 56.8365C58.8335 57.057 59.1612 57.2189 59.5108 57.3127C59.8604 57.4066 60.2251 57.4307 60.584 57.3837C60.9429 57.3366 61.2891 57.2193 61.6027 57.0385Z" fill="#BCB9B7"/>
<path d="M63.0504 53.0213L55.9105 40.6459L56.4031 40.3615C56.6071 40.2441 56.786 40.0876 56.9294 39.9009C57.0728 39.7143 57.178 39.5011 57.2388 39.2737C57.2997 39.0463 57.3151 38.8092 57.284 38.5758C57.253 38.3424 57.1763 38.1175 57.0582 37.9139L55.814 35.7557C56.4376 34.7485 56.9098 33.6552 57.2156 32.5108C57.8277 30.2237 57.748 27.8066 56.9867 25.5648C56.2254 23.323 54.8166 21.3572 52.9383 19.9159C51.06 18.4746 48.7967 17.6225 46.4342 17.4672C44.0718 17.3119 41.7163 17.8605 39.6656 19.0436C39.5491 19.1115 39.464 19.2227 39.4289 19.3529C39.3937 19.4831 39.4112 19.6219 39.4777 19.7393C39.5113 19.797 39.556 19.8476 39.6091 19.8881C39.6623 19.9285 39.723 19.9581 39.7876 19.9751C39.8522 19.9921 39.9196 19.9961 39.9858 19.9871C40.052 19.978 40.1157 19.9559 40.1734 19.9221C42.0502 18.8394 44.2059 18.3374 46.3679 18.4795C48.5299 18.6216 50.6013 19.4014 52.3203 20.7204C54.0393 22.0394 55.3287 23.8383 56.0255 25.8899C56.7224 27.9415 56.7955 30.1536 56.2355 32.2467C55.9464 33.2883 55.514 34.2846 54.9507 35.2073C54.346 36.2061 53.5729 37.0926 52.6656 37.8276C50.7811 39.3949 48.4275 40.2884 45.9777 40.3666C44.123 40.4204 42.2849 40.0028 40.6355 39.153C40.5765 39.1225 40.5121 39.1041 40.4459 39.0986C40.3798 39.0931 40.3132 39.1007 40.25 39.121C40.1868 39.1413 40.1282 39.1738 40.0776 39.2168C40.027 39.2597 39.9853 39.3122 39.955 39.3713C39.8937 39.4913 39.8822 39.6306 39.9231 39.759C39.964 39.8875 40.0539 39.9945 40.1734 40.0569C41.868 40.93 43.7464 41.3861 45.6527 41.3873C45.7898 41.3873 45.9269 41.3873 46.064 41.3822L47.3082 43.5405C47.5464 43.9527 47.9383 44.2537 48.3981 44.3775C48.8579 44.5012 49.3479 44.4376 49.7609 44.2006L50.2535 43.9162L57.3984 56.2865C57.6117 56.6597 57.8967 56.9871 58.2369 57.2499C58.5771 57.5127 58.9658 57.7056 59.3808 57.8177C59.7958 57.9298 60.2288 57.9589 60.6551 57.9031C61.0813 57.8474 61.4923 57.708 61.8645 57.493C62.2368 57.2779 62.5628 56.9915 62.824 56.6501C63.0852 56.3087 63.2764 55.919 63.3866 55.5035C63.4968 55.088 63.5238 54.6549 63.4661 54.2289C63.4084 53.8029 63.2671 53.3925 63.0504 53.0213ZM48.7605 43.4186C48.6422 43.401 48.5292 43.3572 48.43 43.2905C48.3307 43.2237 48.2476 43.1356 48.1867 43.0326L47.1812 41.2858C47.7153 41.2263 48.2435 41.1227 48.7605 40.976V43.4186ZM55.3316 36.949L56.1796 38.4217C56.232 38.5094 56.2658 38.607 56.2789 38.7083C56.292 38.8097 56.2841 38.9126 56.2558 39.0108C56.2301 39.1095 56.185 39.2021 56.1231 39.2832C56.0612 39.3643 55.9837 39.4322 55.8953 39.483L55.3316 39.808V36.949ZM52.5539 39.1885C52.9061 38.9446 53.2435 38.6801 53.5644 38.3963C53.7117 38.2694 53.8539 38.1322 53.9961 37.9951C54.1078 37.8885 54.2144 37.7768 54.316 37.6651V40.3971L52.5539 41.4127V39.1885ZM49.7761 43.0174V40.6459C50.3837 40.4212 50.9728 40.1495 51.5382 39.8334V41.9967L49.7761 43.0174ZM61.3492 56.6014C60.8325 56.8987 60.2189 56.9791 59.6431 56.8249C59.0672 56.6707 58.5759 56.2945 58.2769 55.7787L51.1371 43.4033L55.0269 41.1588L62.1718 53.5291C62.4686 54.046 62.5487 54.6593 62.3945 55.235C62.2404 55.8107 61.8645 56.302 61.3492 56.6014Z" fill="black"/>
<path d="M45.6621 38.813C45.5274 38.813 45.3983 38.7595 45.303 38.6643C45.2078 38.5691 45.1543 38.4399 45.1543 38.3052C45.1543 38.1705 45.2078 38.0414 45.303 37.9461C45.3983 37.8509 45.5274 37.7974 45.6621 37.7974C47.0217 37.7945 48.3603 37.4613 49.5626 36.8265C49.6555 36.7757 49.748 36.7249 49.8389 36.6741C51.1341 35.9272 52.2059 34.8472 52.9431 33.5463C53.6802 32.2454 54.0558 30.771 54.0308 29.276C54.0059 27.781 53.5814 26.3199 52.8013 25.0443C52.0213 23.7687 50.9141 22.7251 49.5946 22.0217C49.476 21.9579 49.3875 21.8496 49.3487 21.7206C49.3099 21.5916 49.3239 21.4525 49.3877 21.3339C49.4514 21.2152 49.5597 21.1267 49.6887 21.0879C49.8177 21.0491 49.9569 21.0632 50.0755 21.1269C51.5552 21.915 52.797 23.0847 53.6719 24.5147C54.5469 25.9448 55.0231 27.5829 55.0511 29.2591C55.0791 30.9353 54.658 32.5885 53.8313 34.047C53.0047 35.5054 51.8027 36.7161 50.3502 37.5531C50.2487 37.6126 50.1446 37.6694 50.04 37.7253C48.6905 38.4376 47.188 38.8109 45.6621 38.813Z" fill="black"/>
<path d="M45.3328 21.8203H4.56055C3.75247 21.8203 2.97748 22.1413 2.40608 22.7127C1.83468 23.2841 1.51367 24.0591 1.51367 24.8672V33.9316C1.51367 34.7397 1.83468 35.5147 2.40608 36.0861C2.97748 36.6575 3.75247 36.9785 4.56055 36.9785H45.3328C46.1409 36.9785 46.9159 36.6575 47.4873 36.0861C48.0587 35.5147 48.3797 34.7397 48.3797 33.9316V24.8672C48.3797 24.0591 48.0587 23.2841 47.4873 22.7127C46.9159 22.1413 46.1409 21.8203 45.3328 21.8203ZM47.3641 33.9316C47.3625 34.4699 47.1479 34.9856 46.7673 35.3662C46.3868 35.7468 45.871 35.9613 45.3328 35.9629H4.56055C4.02203 35.9622 3.50577 35.748 3.12498 35.3672C2.74419 34.9864 2.52997 34.4702 2.5293 33.9316V24.8672C2.52997 24.3287 2.74419 23.8124 3.12498 23.4316C3.50577 23.0508 4.02203 22.8366 4.56055 22.8359H45.3328C45.871 22.8375 46.3868 23.0521 46.7673 23.4327C47.1479 23.8132 47.3625 24.329 47.3641 24.8672V33.9316Z" fill="black"/>
<path d="M30.681 31.9925C30.2585 31.9844 29.8395 31.9142 29.4373 31.7843C29.314 31.7389 29.2131 31.6475 29.1558 31.5292C29.0985 31.411 29.0893 31.2752 29.1301 31.1503C29.1708 31.0253 29.2584 30.9211 29.3744 30.8594C29.4904 30.7977 29.6258 30.7834 29.7522 30.8195C30.1843 30.9601 30.9171 31.0576 31.1639 30.8774C31.1908 30.8581 31.2528 30.8129 31.2528 30.6235C31.2528 30.434 31.1004 30.3284 30.4794 30.1111C29.9248 29.9176 29.087 29.6251 29.087 28.7278C29.079 28.5343 29.1178 28.3417 29.2001 28.1664C29.2824 27.9912 29.4058 27.8383 29.5597 27.7208C30.2915 27.1663 31.5818 27.4897 31.8342 27.5593C31.9638 27.5957 32.0737 27.6821 32.1396 27.7994C32.2056 27.9167 32.2222 28.0555 32.186 28.1851C32.1497 28.3147 32.0634 28.4246 31.9462 28.4907C31.8289 28.5567 31.6902 28.5735 31.5605 28.5374C31.1111 28.3844 30.624 28.3821 30.1732 28.5308C30.1483 28.549 30.1026 28.5815 30.1026 28.7278C30.1026 28.8801 30.3123 28.9766 30.8135 29.1523C31.3924 29.3554 32.2679 29.6601 32.2679 30.625C32.2786 30.8322 32.2378 31.0389 32.1492 31.2266C32.0606 31.4143 31.9269 31.5771 31.7601 31.7005C31.4397 31.9081 31.0623 32.0103 30.681 31.9925Z" fill="black"/>
<path d="M10.9594 29.4082V31.4852C10.9594 31.6198 10.9059 31.749 10.8106 31.8442C10.7154 31.9395 10.5862 31.993 10.4516 31.993C10.3169 31.993 10.1877 31.9395 10.0925 31.8442C9.99725 31.749 9.94375 31.6198 9.94375 31.4852V29.4082C9.94347 29.341 9.92986 29.2746 9.90371 29.2127C9.87756 29.1508 9.83939 29.0947 9.79141 29.0477C9.74587 28.9981 9.68993 28.9592 9.6276 28.9337C9.56528 28.9082 9.49809 28.8969 9.43086 28.9004L7.54688 28.9105V31.4852C7.54688 31.6198 7.49337 31.749 7.39814 31.8442C7.30291 31.9395 7.17374 31.993 7.03906 31.993C6.90438 31.993 6.77522 31.9395 6.67998 31.8442C6.58475 31.749 6.53125 31.6198 6.53125 31.4852V25.3203C6.53125 25.1856 6.58475 25.0565 6.67998 24.9612C6.77522 24.866 6.90438 24.8125 7.03906 24.8125C7.17374 24.8125 7.30291 24.866 7.39814 24.9612C7.49337 25.0565 7.54688 25.1856 7.54688 25.3203V27.8949L9.42578 27.8848H9.43594C9.63503 27.8828 9.83249 27.9209 10.0166 27.9968C10.2006 28.0727 10.3676 28.1848 10.5074 28.3266C10.6507 28.4679 10.7645 28.6363 10.8421 28.822C10.9197 29.0077 10.9595 29.2069 10.9594 29.4082Z" fill="black"/>
<path d="M16.951 31.4647C16.951 31.5994 16.8975 31.7285 16.8022 31.8238C16.707 31.919 16.5778 31.9725 16.4432 31.9725H14.9197C14.5157 31.9725 14.1282 31.812 13.8425 31.5263C13.5568 31.2406 13.3963 30.8531 13.3963 30.4491V28.7124H12.208C12.0733 28.7124 11.9442 28.6589 11.8489 28.5636C11.7537 28.4684 11.7002 28.3392 11.7002 28.2045C11.7002 28.0699 11.7537 27.9407 11.8489 27.8455C11.9442 27.7502 12.0733 27.6967 12.208 27.6967H13.3963V25.3049C13.3963 25.1703 13.4498 25.0411 13.545 24.9459C13.6403 24.8506 13.7694 24.7971 13.9041 24.7971C14.0388 24.7971 14.1679 24.8506 14.2632 24.9459C14.3584 25.0411 14.4119 25.1703 14.4119 25.3049V27.6967H15.6002C15.7349 27.6967 15.864 27.7502 15.9593 27.8455C16.0545 27.9407 16.108 28.0699 16.108 28.2045C16.108 28.3392 16.0545 28.4684 15.9593 28.5636C15.864 28.6589 15.7349 28.7124 15.6002 28.7124H14.4119V30.4491C14.4119 30.5838 14.4654 30.7129 14.5606 30.8081C14.6559 30.9034 14.785 30.9569 14.9197 30.9569H16.4432C16.5778 30.9569 16.707 31.0104 16.8022 31.1056C16.8975 31.2009 16.951 31.33 16.951 31.4647Z" fill="black"/>
<path d="M22.5369 31.4647C22.5369 31.5994 22.4834 31.7285 22.3882 31.8238C22.2929 31.919 22.1638 31.9725 22.0291 31.9725H20.5057C20.1016 31.9725 19.7141 31.812 19.4284 31.5263C19.1427 31.2406 18.9822 30.8531 18.9822 30.4491V28.7124H17.7939C17.6593 28.7124 17.5301 28.6589 17.4349 28.5636C17.3396 28.4684 17.2861 28.3392 17.2861 28.2045C17.2861 28.0699 17.3396 27.9407 17.4349 27.8455C17.5301 27.7502 17.6593 27.6967 17.7939 27.6967H18.9822V25.3049C18.9822 25.1703 19.0357 25.0411 19.131 24.9459C19.2262 24.8506 19.3554 24.7971 19.49 24.7971C19.6247 24.7971 19.7539 24.8506 19.8491 24.9459C19.9444 25.0411 19.9979 25.1703 19.9979 25.3049V27.6967H21.1861C21.3208 27.6967 21.45 27.7502 21.5452 27.8455C21.6404 27.9407 21.6939 28.0699 21.6939 28.2045C21.6939 28.3392 21.6404 28.4684 21.5452 28.5636C21.45 28.6589 21.3208 28.7124 21.1861 28.7124H19.9979V30.4491C19.9979 30.5838 20.0514 30.7129 20.1466 30.8081C20.2418 30.9034 20.371 30.9569 20.5057 30.9569H22.0291C22.1638 30.9569 22.2929 31.0104 22.3882 31.1056C22.4834 31.2009 22.5369 31.33 22.5369 31.4647Z" fill="black"/>
<path d="M26.4828 27.6953H24.416C24.2813 27.6953 24.1522 27.7488 24.0569 27.844C23.9617 27.9393 23.9082 28.0684 23.9082 28.2031V34.1141C23.9082 34.2487 23.9617 34.3779 24.0569 34.4731C24.1522 34.5684 24.2813 34.6219 24.416 34.6219C24.5507 34.6219 24.6799 34.5684 24.7751 34.4731C24.8703 34.3779 24.9238 34.2487 24.9238 34.1141V31.9863L26.498 31.966C26.8921 31.9535 27.2655 31.787 27.538 31.5021C27.8106 31.2172 27.9605 30.8368 27.9555 30.4426V29.2188C27.9588 29.022 27.9234 28.8265 27.8512 28.6435C27.779 28.4605 27.6715 28.2934 27.5347 28.152C27.398 28.0105 27.2347 27.8974 27.0542 27.819C26.8737 27.7406 26.6795 27.6986 26.4828 27.6953ZM26.9398 30.4426C26.9456 30.5694 26.9016 30.6935 26.8171 30.7884C26.7327 30.8833 26.6146 30.9414 26.4879 30.9504L24.9238 30.9707V28.7109H26.4828C26.6107 28.7179 26.7306 28.7752 26.8162 28.8704C26.9019 28.9656 26.9463 29.0909 26.9398 29.2188V30.4426Z" fill="black"/>
<path d="M34.6943 28.8945C34.9748 28.8945 35.2021 28.6672 35.2021 28.3867C35.2021 28.1063 34.9748 27.8789 34.6943 27.8789C34.4139 27.8789 34.1865 28.1063 34.1865 28.3867C34.1865 28.6672 34.4139 28.8945 34.6943 28.8945Z" fill="black"/>
<path d="M34.6943 31.9727C34.9748 31.9727 35.2021 31.7453 35.2021 31.4648C35.2021 31.1844 34.9748 30.957 34.6943 30.957C34.4139 30.957 34.1865 31.1844 34.1865 31.4648C34.1865 31.7453 34.4139 31.9727 34.6943 31.9727Z" fill="black"/>
<path d="M36.848 32.5096C36.7333 32.4403 36.6499 32.3293 36.6153 32.1999C36.5806 32.0705 36.5974 31.9327 36.6621 31.8154L39.8294 26.331C39.8625 26.2728 39.9068 26.2217 39.9597 26.1807C40.0126 26.1397 40.0731 26.1095 40.1378 26.092C40.2024 26.0744 40.2699 26.0698 40.3363 26.0785C40.4027 26.0871 40.4667 26.1088 40.5247 26.1423C40.5827 26.1757 40.6335 26.2204 40.6742 26.2736C40.7149 26.3268 40.7446 26.3875 40.7618 26.4522C40.7789 26.517 40.783 26.5845 40.774 26.6508C40.7649 26.7172 40.7428 26.7811 40.7089 26.8389L37.5422 32.3232C37.5116 32.3838 37.4687 32.4373 37.416 32.4801C37.3634 32.5229 37.3023 32.5542 37.2368 32.5718C37.1713 32.5893 37.1028 32.5929 37.0358 32.5822C36.9688 32.5715 36.9048 32.5467 36.848 32.5096Z" fill="black"/>
<path d="M40.197 32.6548C40.1383 32.6224 40.0867 32.5785 40.0454 32.5257C40.004 32.4729 39.9738 32.4123 39.9564 32.3475C39.9391 32.2828 39.935 32.2152 39.9444 32.1488C39.9538 32.0824 39.9765 32.0186 40.0111 31.9611L43.1774 26.4768C43.2447 26.3601 43.3556 26.2749 43.4858 26.24C43.6159 26.2051 43.7546 26.2233 43.8713 26.2907C43.988 26.358 44.0732 26.4689 44.1081 26.5991C44.143 26.7292 44.1247 26.8679 44.0574 26.9846L40.8907 32.469C40.858 32.5274 40.8139 32.5786 40.7611 32.6197C40.7082 32.6608 40.6477 32.6909 40.5831 32.7083C40.5184 32.7256 40.4509 32.7298 40.3846 32.7206C40.3183 32.7114 40.2545 32.6891 40.197 32.6548Z" fill="black"/>
</svg>
