<svg width="131" height="145" viewBox="0 0 131 145" fill="none" xmlns="http://www.w3.org/2000/svg">
<path opacity="0.5" d="M111.271 119.852L93.3128 101.929C98.799 96.0182 102.174 88.0927 102.208 79.3826H112.871C113.381 82.6504 116.182 85.1606 119.562 85.1606C123.299 85.1606 126.342 82.0914 126.342 78.3189C126.342 74.5472 123.3 71.4773 119.562 71.4773C116.182 71.4773 113.381 73.9874 112.871 77.2553H102.148C101.8 71.4077 99.948 65.9662 96.976 61.3142L106.309 50.4486C108.65 51.6913 111.311 52.3982 114.135 52.3982C123.434 52.3982 131 44.7641 131 35.3805C131 25.9975 123.434 18.3627 114.135 18.3627C100.404 18.3627 92.4304 34.1298 100.467 45.3348L91.9777 55.2187C85.4416 48.9375 76.5199 45.4421 66.9149 46.1381V17.9632C71.347 17.4339 74.7968 13.6259 74.7968 9.01532C74.7968 4.04435 70.7886 0 65.8607 0C60.9342 0 56.9254 4.04435 56.9254 9.01532C56.9254 13.6259 60.3759 17.4339 64.8066 17.9632V46.3593C58.7879 47.1916 53.2851 49.6706 48.756 53.3328L38.1335 42.3548C42.0726 36.5065 37.9007 28.5396 30.8746 28.5396C26.0379 28.5396 22.1016 32.5107 22.1016 37.3911C22.1016 44.3704 29.7888 48.6207 35.6142 44.8279L46.1275 55.6922C40.8698 60.9582 37.3567 67.997 36.5598 75.8356H26.0817C24.9249 69.6973 19.5744 65.0388 13.1605 65.0388C5.90373 65.0388 0 70.9959 0 78.3175C0 85.6398 5.90444 91.5968 13.1605 91.5968C19.5751 91.5968 24.9249 86.9384 26.0817 80.8001H36.4262C36.8279 89.5848 40.6319 97.4843 46.5321 103.198L41.9907 113.382C34.4516 111.255 27.1359 117.025 27.1359 124.753C27.1359 131.268 32.39 136.569 38.847 136.569C50.4482 136.569 54.9874 121.245 45.1955 114.838L49.3115 105.609C59.8356 113.753 74.084 114.699 85.5285 108.124L104.353 126.914C100.817 135.537 107.153 145 116.348 145C123.505 145 129.328 139.124 129.328 131.903C129.328 122.528 119.797 116.179 111.271 119.852ZM105.002 35.3805C105.002 30.2993 109.099 26.165 114.135 26.165C119.17 26.165 123.267 30.2993 123.267 35.3805C123.267 40.4617 119.17 44.5959 114.135 44.5959C109.105 44.5959 105.002 40.4327 105.002 35.3805ZM59.0351 9.01532C59.0351 5.21748 62.0976 2.1273 65.8614 2.1273C69.6253 2.1273 72.6878 5.21748 72.6878 9.01532C72.6878 13.2003 68.9743 16.466 64.8066 15.8127C61.5429 15.2986 59.0351 12.4506 59.0351 9.01532ZM25.6168 37.3918C25.6168 34.4669 27.9751 32.0873 30.8746 32.0873C36.4722 32.0873 38.1737 39.82 33.0748 42.204C29.5855 43.8339 25.6168 41.2397 25.6168 37.3918ZM38.8463 133.024C34.3265 133.024 30.6504 129.314 30.6504 124.754C30.6504 117.957 38.3562 114.087 43.7282 118.128C50.0732 122.901 46.6765 133.024 38.8463 133.024ZM124.232 78.3189C124.232 83.875 116.266 84.8248 115.014 79.3833C114.848 78.6633 114.848 77.9767 115.014 77.2553C116.263 71.8217 124.232 72.7541 124.232 78.3189ZM13.1598 86.6331C8.61632 86.6331 4.92002 82.9035 4.92002 78.3189C4.92002 73.7351 8.61632 70.0047 13.1598 70.0047C18.6963 70.0047 22.6865 75.4484 21.023 80.8022C19.9747 84.1774 16.846 86.6331 13.1598 86.6331ZM53.2025 96.8861C37.328 82.1233 47.7134 55.2629 69.2983 55.2629C81.6526 55.2629 91.9683 64.8699 92.9844 77.2553C94.7585 98.9417 69.1201 111.692 53.2025 96.8861ZM114.142 134.153C112.15 132.165 113.558 128.737 116.347 128.737C118.076 128.737 119.486 130.161 119.486 131.904C119.487 134.706 116.121 136.128 114.142 134.153Z" fill="#F5F5F5"/>
</svg>
