<svg width="174" height="45" viewBox="0 0 174 45" fill="none" xmlns="http://www.w3.org/2000/svg">
<g clip-path="url(#clip0_5890_7606)">
<path d="M25.7497 27.8339C25.7497 28.1324 25.6612 28.4243 25.4953 28.6726C25.3294 28.9208 25.0937 29.1143 24.8178 29.2286C24.542 29.3428 24.2384 29.3727 23.9456 29.3145C23.6527 29.2562 23.3838 29.1125 23.1726 28.9013C22.9615 28.6902 22.8177 28.4212 22.7595 28.1284C22.7012 27.8355 22.7311 27.532 22.8454 27.2561C22.9596 26.9803 23.1531 26.7445 23.4014 26.5786C23.6497 26.4128 23.9415 26.3242 24.2401 26.3242C24.6401 26.3254 25.0234 26.4849 25.3062 26.7677C25.5891 27.0506 25.7485 27.4338 25.7497 27.8339Z" fill="#EC4814"/>
<path d="M17.2715 17.1737C17.2715 16.8751 17.36 16.5832 17.5259 16.335C17.6918 16.0867 17.9276 15.8932 18.2034 15.779C18.4793 15.6647 18.7828 15.6348 19.0756 15.6931C19.3685 15.7513 19.6375 15.8951 19.8486 16.1062C20.0597 16.3174 20.2035 16.5863 20.2617 16.8792C20.32 17.172 20.2901 17.4756 20.1758 17.7514C20.0616 18.0273 19.8681 18.263 19.6198 18.4289C19.3716 18.5948 19.0797 18.6833 18.7811 18.6833C18.3811 18.6821 17.9978 18.5227 17.715 18.2398C17.4321 17.957 17.2727 17.5737 17.2715 17.1737Z" fill="#EC4814"/>
<path d="M40.0627 16.7551C39.5022 16.7551 38.9533 16.9142 38.4797 17.214C38.0061 17.5137 37.6274 17.9417 37.3876 18.4483H21.4561C21.1667 19.0554 20.6794 19.546 20.0744 19.8395C19.4693 20.1331 18.7824 20.2122 18.1265 20.0639C17.4705 19.9155 16.8845 19.5485 16.4647 19.0231C16.0449 18.4977 15.8162 17.8452 15.8162 17.1727C15.8162 16.5002 16.0449 15.8476 16.4647 15.3223C16.8845 14.7969 17.4705 14.4299 18.1265 14.2815C18.7824 14.1331 19.4693 14.2122 20.0744 14.5058C20.6794 14.7994 21.1667 15.29 21.4561 15.8971H34.1893C33.0893 13.4 31.287 11.2767 29.0017 9.78583C26.7165 8.29492 24.047 7.50074 21.3184 7.5C14.0777 7.5 7.9657 12.9604 7.55273 20.995H37.3784C37.6066 21.4736 37.959 21.8823 38.3988 22.1783C38.8387 22.4744 39.35 22.6471 39.8793 22.6784C40.4086 22.7097 40.9366 22.5984 41.4083 22.3561C41.88 22.1139 42.278 21.7495 42.561 21.3011C42.8439 20.8526 43.0014 20.3365 43.017 19.8065C43.0326 19.2765 42.9057 18.752 42.6496 18.2877C42.3935 17.8234 42.0176 17.4363 41.5609 17.1667C41.1043 16.8972 40.5837 16.755 40.0535 16.7551H40.0627ZM40.0627 21.229C39.7639 21.2299 39.4716 21.1421 39.2227 20.9768C38.9739 20.8115 38.7797 20.576 38.6647 20.3002C38.5497 20.0245 38.5192 19.7208 38.5769 19.4276C38.6346 19.1345 38.7781 18.8651 38.989 18.6535C39.1999 18.4419 39.4689 18.2977 39.7619 18.239C40.0549 18.1804 40.3586 18.2101 40.6347 18.3242C40.9109 18.4383 41.1469 18.6318 41.313 18.8801C41.4791 19.1285 41.5677 19.4206 41.5677 19.7193C41.5677 20.1189 41.4093 20.5022 41.1272 20.7852C40.8451 21.0682 40.4623 21.2278 40.0627 21.229Z" fill="#EC4814"/>
<path d="M5.63504 24.008C5.34597 23.3991 4.85835 22.9068 4.25235 22.6119C3.64634 22.3169 2.95802 22.237 2.30055 22.3851C1.64307 22.5333 1.05557 22.9007 0.63463 23.4271C0.213693 23.9534 -0.015625 24.6073 -0.015625 25.2813C-0.015625 25.9553 0.213693 26.6092 0.63463 27.1355C1.05557 27.6619 1.64307 28.0293 2.30055 28.1775C2.95802 28.3256 3.64634 28.2457 4.25235 27.9507C4.85835 27.6558 5.34597 27.1635 5.63504 26.5546H21.5849C21.8743 25.9476 22.3615 25.457 22.9666 25.1634C23.5716 24.8698 24.2585 24.7907 24.9145 24.9391C25.5704 25.0874 26.1564 25.4544 26.5763 25.9798C26.9961 26.5052 27.2248 27.1577 27.2248 27.8302C27.2248 28.5028 26.9961 29.1553 26.5763 29.6807C26.1564 30.2061 25.5704 30.5731 24.9145 30.7214C24.2585 30.8698 23.5716 30.7907 22.9666 30.4971C22.3615 30.2035 21.8743 29.7129 21.5849 29.1059H8.83326C9.93355 31.6036 11.7366 33.7274 14.0228 35.2183C16.3089 36.7093 18.9794 37.5031 21.7088 37.5029C28.9449 37.5029 35.0569 32.0425 35.4744 24.008H5.63504ZM2.95991 26.7886C2.66114 26.7886 2.36908 26.7 2.12072 26.5339C1.87237 26.3678 1.67888 26.1318 1.56475 25.8557C1.45063 25.5795 1.421 25.2758 1.47962 24.9828C1.53825 24.6898 1.68248 24.4208 1.89407 24.2099C2.10565 23.999 2.37507 23.8556 2.66822 23.7978C2.96136 23.7401 3.26504 23.7706 3.54081 23.8856C3.81657 24.0006 4.05203 24.1948 4.21736 24.4436C4.38269 24.6925 4.47045 24.9848 4.46954 25.2836C4.46954 25.4816 4.43046 25.6777 4.35454 25.8606C4.27862 26.0435 4.16735 26.2096 4.0271 26.3495C3.88686 26.4893 3.7204 26.6 3.53727 26.6754C3.35414 26.7508 3.15794 26.7892 2.95991 26.7886Z" fill="#EC4814"/>
</g>
<path d="M63.1393 34.416C61.8807 34.416 60.6753 34.2187 59.5233 33.824C58.3713 33.4187 57.3633 32.8427 56.4993 32.096C55.6353 31.3387 55.0113 30.4373 54.6273 29.392L59.1393 27.728C59.246 28.0373 59.4807 28.336 59.8433 28.624C60.2167 28.912 60.686 29.152 61.2513 29.344C61.8167 29.5253 62.446 29.616 63.1393 29.616C63.7793 29.616 64.382 29.5253 64.9473 29.344C65.5127 29.152 65.9713 28.8907 66.3233 28.56C66.6753 28.2293 66.8513 27.8453 66.8513 27.408C66.8513 26.96 66.6647 26.592 66.2913 26.304C65.9287 26.0053 65.4593 25.7707 64.8833 25.6C64.318 25.4187 63.7367 25.2853 63.1393 25.2C61.518 24.9653 60.062 24.5813 58.7713 24.048C57.4913 23.504 56.478 22.7573 55.7313 21.808C54.9953 20.8587 54.6273 19.6533 54.6273 18.192C54.6273 16.7947 55.022 15.5733 55.8113 14.528C56.6007 13.472 57.6407 12.6507 58.9313 12.064C60.2327 11.4773 61.6353 11.184 63.1393 11.184C64.398 11.184 65.6033 11.3867 66.7553 11.792C67.918 12.1867 68.9313 12.7627 69.7953 13.52C70.6593 14.2773 71.278 15.184 71.6513 16.24L67.1393 17.872C67.0327 17.5627 66.7927 17.2693 66.4193 16.992C66.0567 16.704 65.5927 16.4693 65.0273 16.288C64.462 16.1067 63.8327 16.016 63.1393 16.016C62.5207 16.0053 61.9287 16.096 61.3633 16.288C60.798 16.48 60.334 16.7413 59.9713 17.072C59.6087 17.4027 59.4273 17.776 59.4273 18.192C59.4273 18.768 59.598 19.2 59.9393 19.488C60.2807 19.7653 60.7287 19.9627 61.2833 20.08C61.8487 20.1973 62.4673 20.304 63.1393 20.4C64.6753 20.624 66.0887 21.024 67.3793 21.6C68.67 22.176 69.7047 22.944 70.4833 23.904C71.262 24.864 71.6513 26.032 71.6513 27.408C71.6513 28.8053 71.2567 30.032 70.4673 31.088C69.6887 32.1333 68.654 32.9493 67.3633 33.536C66.0727 34.1227 64.6647 34.416 63.1393 34.416ZM81.5498 34.416C80.0778 34.416 78.7338 34.0373 77.5178 33.28C76.3125 32.5227 75.3472 31.5093 74.6218 30.24C73.9072 28.96 73.5498 27.5467 73.5498 26C73.5498 24.8267 73.7578 23.7333 74.1738 22.72C74.5898 21.696 75.1605 20.8 75.8858 20.032C76.6218 19.2533 77.4752 18.6453 78.4458 18.208C79.4165 17.7707 80.4512 17.552 81.5498 17.552C83.0218 17.552 84.3605 17.9307 85.5658 18.688C86.7818 19.4453 87.7472 20.464 88.4618 21.744C89.1872 23.024 89.5498 24.4427 89.5498 26C89.5498 27.1627 89.3418 28.2507 88.9258 29.264C88.5098 30.2773 87.9338 31.1733 87.1978 31.952C86.4725 32.72 85.6245 33.3227 84.6538 33.76C83.6938 34.1973 82.6592 34.416 81.5498 34.416ZM81.5498 29.616C82.1578 29.616 82.7018 29.4507 83.1818 29.12C83.6725 28.7893 84.0565 28.352 84.3338 27.808C84.6112 27.2533 84.7498 26.6507 84.7498 26C84.7498 25.328 84.6005 24.7147 84.3018 24.16C84.0138 23.6053 83.6245 23.168 83.1338 22.848C82.6538 22.5173 82.1258 22.352 81.5498 22.352C80.9525 22.352 80.4085 22.5227 79.9178 22.864C79.4378 23.1947 79.0538 23.6373 78.7658 24.192C78.4885 24.7467 78.3498 25.3493 78.3498 26C78.3498 26.6827 78.4938 27.296 78.7818 27.84C79.0805 28.384 79.4698 28.816 79.9498 29.136C80.4405 29.456 80.9738 29.616 81.5498 29.616ZM100.436 17.552C101.993 17.552 103.412 17.9307 104.692 18.688C105.972 19.4453 106.99 20.464 107.748 21.744C108.505 23.0133 108.884 24.4213 108.884 25.968C108.884 27.1307 108.665 28.224 108.228 29.248C107.79 30.272 107.182 31.1733 106.404 31.952C105.636 32.72 104.74 33.3227 103.716 33.76C102.702 34.1973 101.609 34.416 100.436 34.416C99.5929 34.416 98.8356 34.2347 98.1636 33.872C97.4916 33.5093 96.9049 33.0507 96.4036 32.496V34H91.6036V10H96.4036V19.472C96.9049 18.9067 97.4916 18.448 98.1636 18.096C98.8356 17.7333 99.5929 17.552 100.436 17.552ZM100.372 29.776C101.033 29.776 101.636 29.6053 102.18 29.264C102.724 28.9227 103.156 28.464 103.476 27.888C103.796 27.312 103.956 26.672 103.956 25.968C103.956 25.2747 103.796 24.64 103.476 24.064C103.156 23.488 102.724 23.0293 102.18 22.688C101.636 22.336 101.033 22.16 100.372 22.16C99.7209 22.16 99.1236 22.336 98.5796 22.688C98.0463 23.0293 97.6196 23.488 97.2996 24.064C96.9796 24.64 96.8196 25.2747 96.8196 25.968C96.8196 26.672 96.9796 27.312 97.2996 27.888C97.6196 28.464 98.0463 28.9227 98.5796 29.264C99.1236 29.6053 99.7209 29.776 100.372 29.776ZM120.247 22.8H117.527V34H112.727V22.8H110.647V18H112.727V12.976H117.527V18H120.247V22.8ZM129.862 34.416C128.39 34.416 127.046 34.0373 125.83 33.28C124.625 32.5227 123.66 31.504 122.934 30.224C122.22 28.944 121.862 27.5307 121.862 25.984C121.862 24.8213 122.07 23.7333 122.486 22.72C122.902 21.696 123.473 20.8 124.198 20.032C124.934 19.2533 125.788 18.6453 126.758 18.208C127.729 17.7707 128.764 17.552 129.862 17.552C131.142 17.552 132.31 17.8347 133.366 18.4C134.433 18.9547 135.329 19.712 136.054 20.672C136.79 21.6213 137.313 22.6933 137.622 23.888C137.932 25.0827 137.964 26.3147 137.718 27.584H127.046C127.196 27.9573 127.393 28.2987 127.638 28.608C127.894 28.9067 128.204 29.1467 128.566 29.328C128.94 29.5093 129.372 29.6053 129.862 29.616C130.332 29.6267 130.764 29.5253 131.158 29.312C131.564 29.0987 131.916 28.8107 132.214 28.448L137.11 29.584C136.46 31.0027 135.489 32.1653 134.198 33.072C132.908 33.968 131.462 34.416 129.862 34.416ZM126.87 24.064H132.87C132.721 23.6053 132.497 23.2 132.198 22.848C131.9 22.496 131.548 22.2187 131.142 22.016C130.748 21.8133 130.321 21.712 129.862 21.712C129.414 21.712 128.988 21.8133 128.582 22.016C128.188 22.2187 127.841 22.496 127.542 22.848C127.254 23.2 127.03 23.6053 126.87 24.064ZM149.536 28.752L153.856 31.088C153.12 32.0907 152.197 32.896 151.088 33.504C149.979 34.112 148.768 34.416 147.456 34.416C145.984 34.416 144.64 34.0373 143.424 33.28C142.219 32.5227 141.253 31.5093 140.528 30.24C139.813 28.96 139.456 27.5467 139.456 26C139.456 24.8267 139.664 23.7333 140.08 22.72C140.496 21.696 141.067 20.8 141.792 20.032C142.528 19.2533 143.381 18.6453 144.352 18.208C145.323 17.7707 146.357 17.552 147.456 17.552C148.768 17.552 149.979 17.856 151.088 18.464C152.197 19.072 153.12 19.888 153.856 20.912L149.536 23.248C149.248 22.96 148.923 22.7413 148.56 22.592C148.208 22.432 147.84 22.352 147.456 22.352C146.848 22.352 146.304 22.5227 145.824 22.864C145.344 23.2053 144.96 23.6533 144.672 24.208C144.395 24.7627 144.256 25.36 144.256 26C144.256 26.6293 144.395 27.2213 144.672 27.776C144.96 28.32 145.344 28.7627 145.824 29.104C146.304 29.4453 146.848 29.616 147.456 29.616C147.84 29.616 148.208 29.5413 148.56 29.392C148.923 29.232 149.248 29.0187 149.536 28.752ZM171.096 23.776V34H166.296V25.12C166.296 24.6187 166.174 24.1653 165.928 23.76C165.683 23.344 165.358 23.0187 164.952 22.784C164.547 22.5387 164.094 22.416 163.592 22.416C163.091 22.416 162.632 22.5387 162.216 22.784C161.811 23.0187 161.486 23.344 161.24 23.76C161.006 24.1653 160.888 24.6187 160.888 25.12V34H156.088L156.072 10H160.872L160.888 19.008C161.422 18.5493 162.03 18.192 162.712 17.936C163.395 17.68 164.115 17.552 164.872 17.552C166.024 17.552 167.07 17.8347 168.008 18.4C168.947 18.9547 169.694 19.7013 170.248 20.64C170.814 21.5787 171.096 22.624 171.096 23.776Z" fill="#0E191E"/>
<defs>
<clipPath id="clip0_5890_7606">
<rect width="43.0269" height="30" fill="white" transform="translate(0 7.5)"/>
</clipPath>
</defs>
</svg>
