<svg width="96" height="125" viewBox="0 0 96 125" fill="none" xmlns="http://www.w3.org/2000/svg">
<path d="M3.18359 124V119H5.18359V118H1.18359V119H3.18359V124Z" fill="#5B5B5B"/>
<path d="M8.18359 124L9.18359 123H11.1836L12.1836 124H13.1836L10.1836 118L7.18359 124H8.18359ZM10.1836 120L11.1836 122H9.18359L10.1836 120Z" fill="#5B5B5B"/>
<path d="M20.1836 119C20.9018 119 21.6837 119.377 22.1836 120L23.1836 119C22.8019 118.591 22.5773 118.183 22.1836 118C21.7703 117.818 20.6594 118 20.1836 118C19.2975 118 18.8017 118.421 18.1836 119C17.5655 119.576 17.1836 120.173 17.1836 121C17.1836 121.81 17.5768 122.421 18.1836 123C18.7912 123.576 19.3314 124 20.1836 124C21.0562 124 21.6182 123.596 22.1836 123C22.4335 122.734 23.0789 122.305 23.1836 122C23.2913 121.67 23.1836 121.429 23.1836 121H20.1836V122H22.1836C22.1414 122.401 21.5435 122.712 21.1836 123C20.823 123.285 20.6361 123 20.1836 123C19.6521 123 19.6391 123.381 19.1836 123C18.6972 122.589 18.1836 121.635 18.1836 121C18.1836 120.385 18.7469 119.409 19.1836 119C19.6187 118.586 19.5391 119 20.1836 119Z" fill="#5B5B5B"/>
<path d="M28.1836 118V124H31.1836V123H29.1836V118H28.1836Z" fill="#5B5B5B"/>
<path d="M37.1836 118H36.1836V124H37.1836V118Z" fill="#5B5B5B"/>
<path d="M42.1836 125H43.1836V120L47.1836 125V118H46.1836V123L42.1836 118V125Z" fill="#5B5B5B"/>
<path d="M52.1836 124H55.1836V123H53.1836V121H55.1836V120H53.1836V119H55.1836V118H52.1836V124Z" fill="#5B5B5B"/>
<path d="M68.1836 120H66.1836V118H65.1836V124H66.1836V121H68.1836V124H69.1836V118H68.1836V120Z" fill="#5B5B5B"/>
<path d="M78.1836 119V118H75.1836V124H78.1836V123H76.1836V121H78.1836V120H76.1836V119H78.1836Z" fill="#5B5B5B"/>
<path d="M85.1836 121C85.5914 120.915 85.9328 121.299 86.1836 121C86.4344 120.701 86.1836 120.418 86.1836 120C86.1836 119.467 86.5807 118.324 86.1836 118C85.8177 117.706 84.9991 118 84.1836 118H83.1836V124H84.1836V122L86.1836 124H87.1836L85.1836 121ZM84.1836 121V119C85.0411 119 86.1836 119.403 86.1836 120C86.1836 120.642 85.0616 121 84.1836 121Z" fill="#5B5B5B"/>
<path d="M95.1836 119V118H92.1836V124H95.1836V123H93.1836V121H95.1836V120H93.1836V119H95.1836Z" fill="#5B5B5B"/>
<path d="M20.1836 54L59.1836 15V0L20.1836 39V54Z" fill="#5B5B5B"/>
<path d="M20.1836 88L59.1836 49V37L20.1836 76V88Z" fill="#5B5B5B"/>
<path d="M37.1836 55L76.1836 16V3L37.1836 42V55Z" fill="#5B5B5B"/>
<path d="M76.1836 36L37.1836 75V88L76.1836 49V36Z" fill="#5B5B5B"/>
<path d="M2.18408 110C2.69494 110.468 3.47812 111.745 4.18408 112C4.89004 112.255 5.33812 112 6.18408 112C6.98834 112 7.47216 112.289 8.18408 112C8.896 111.711 9.68887 110.636 10.1841 110L8.18408 109C7.82291 109.434 7.60185 109.802 7.18408 110C6.76631 110.198 6.62791 110 6.18408 110C5.61663 110 4.64281 110.193 4.18408 110C3.72535 109.807 3.51398 109.338 3.18408 109C2.85344 108.663 2.36504 108.463 2.18408 108C2.00387 107.537 2.18408 106.549 2.18408 106C2.18408 105.489 2.00312 105.444 2.18408 105C2.36429 104.557 2.85344 104.332 3.18408 104C3.51398 103.667 3.72535 103.188 4.18408 103C4.64281 102.812 5.61663 103 6.18408 103C6.56536 103 6.80727 102.865 7.18408 103C7.56015 103.135 7.78195 103.596 8.18408 104L10.1841 103C9.63748 102.412 8.81781 101.246 8.18408 101C7.54961 100.754 6.92728 101 6.18408 101C5.33812 101 4.89079 100.745 4.18408 101C3.47737 101.255 2.69419 102.527 2.18408 103C1.67323 103.473 0.472274 103.33 0.184081 104C-0.104857 104.67 0.184081 106.181 0.184081 107C0.184081 107.801 -0.104857 108.344 0.184081 109C0.473019 109.654 1.67323 109.532 2.18408 110Z" fill="#5B5B5B"/>
<path d="M15.782 110C16.2552 110.468 16.1281 111.744 16.782 112C17.4366 112.256 17.9984 112 18.782 112C19.5746 111.99 21.1226 112.265 21.782 112C22.4415 111.734 22.3047 110.473 22.782 110C23.2594 109.527 24.5151 109.656 24.782 109C25.0497 108.343 24.782 106.801 24.782 106C24.782 105.18 25.0497 104.665 24.782 104C24.5144 103.334 23.2594 102.472 22.782 102C22.304 101.527 22.4415 101.246 21.782 101C21.1226 100.754 19.5746 100.99 18.782 101C17.9984 101 17.4366 100.744 16.782 101C16.1274 101.256 16.2545 102.527 15.782 103C15.3088 103.473 14.049 103.329 13.782 104C13.5144 104.671 13.782 106.18 13.782 107C13.782 107.801 13.5144 108.343 13.782 109C14.0497 109.656 15.3088 109.532 15.782 110ZM15.782 105C15.949 104.556 16.4765 104.332 16.782 104C17.0876 103.667 17.3564 103.188 17.782 103C18.2069 102.812 18.2564 103 18.782 103C19.307 103 20.3516 102.812 20.782 103C21.2118 103.188 21.4765 103.667 21.782 104C22.0876 104.333 22.6144 104.556 22.782 105C22.949 105.444 22.782 105.488 22.782 106C22.782 106.55 22.949 107.537 22.782 108C22.6144 108.463 22.0876 108.663 21.782 109C21.4765 109.338 21.2118 109.807 20.782 110C20.3523 110.193 19.3077 110 18.782 110C18.2564 110 18.2069 110.193 17.782 110C17.3564 109.807 17.0883 109.338 16.782 109C16.4765 108.663 15.949 108.463 15.782 108C15.6144 107.537 15.782 106.55 15.782 106C15.7827 105.488 15.6151 105.444 15.782 105Z" fill="#5B5B5B"/>
<path d="M32.7822 101H29.7822V112H31.7822V103L34.7822 112H35.7822L38.7822 103V112H40.7822V101H37.7822L35.7822 109L32.7822 101Z" fill="#5B5B5B"/>
<path d="M48.7822 107H49.7822C50.3723 107 51.2394 107.083 51.7822 107C52.3251 106.917 53.3711 107.232 53.7822 107C54.1934 106.768 54.5393 106.423 54.7822 106C55.0243 105.577 54.7822 104.691 54.7822 104C54.7822 103.392 55.0084 103.407 54.7822 103C54.5553 102.593 54.1622 102.243 53.7822 102C53.4023 101.758 52.2832 101.104 51.7822 101C51.2812 100.897 51.3198 101 50.7822 101H46.7822V112H48.7822V107ZM48.7822 103H49.7822C50.0457 103 50.4975 102.969 50.7822 103C51.067 103.031 51.55 102.891 51.7822 103C52.0137 103.108 52.6345 102.799 52.7822 103C52.9299 103.201 52.7822 103.66 52.7822 104C52.7822 104.372 52.9459 104.794 52.7822 105C52.6185 105.206 52.0403 105.897 51.7822 106C51.5234 106.104 51.0875 105.98 50.7822 106C50.4762 106.021 50.067 106 49.7822 106H48.7822V103Z" fill="#5B5B5B"/>
<path d="M59.7822 109H64.7822L65.7822 112H67.7822L62.7822 101H61.7822L56.7822 112H58.7822L59.7822 109ZM61.7822 103L63.7822 108H60.7822L61.7822 103Z" fill="#5B5B5B"/>
<path d="M71.7822 101V112H73.7822V104L78.7822 112H81.7822V101H79.7822V109L74.7822 101H71.7822Z" fill="#5B5B5B"/>
<path d="M89.7822 112H91.7822V107L95.7822 101H93.7822L90.7822 105L87.7822 101H85.7822L89.7822 107V112Z" fill="#5B5B5B"/>
</svg>
