<svg width="103" height="113" viewBox="0 0 103 113" fill="none" xmlns="http://www.w3.org/2000/svg">
<path d="M32 28.9312H33V29.9312V52.9312L40 45.9312V21.9312H16V69.9312L23 62.9312V29.9312V28.9312H24H32Z" fill="#5B5B5B"/>
<path d="M59 54.9312H60V55.9312V62.9312V63.9312H59H29L22 70.9312H67V47.9312H46L39 54.9312H59Z" fill="#5B5B5B"/>
<path d="M81 26.9312V27.9312H80H65L58 34.9312H88V5.93115L81 12.9312V26.9312Z" fill="#5B5B5B"/>
<path d="M79 7.93115L86 0.931152H53V33.9312L60 26.9312V8.93115V7.93115H61H79Z" fill="#5B5B5B"/>
<path d="M0 108.056H1V112.056H2V108.056H3V107.056H0V108.056Z" fill="#5B5B5B"/>
<path d="M10 110.994H12V111.994H13L11 106.994L9 111.994H10V110.994ZM11 107.994L12 109.994H10L11 107.994Z" fill="#5B5B5B"/>
<path d="M18.9998 107.994C18.8949 108.058 19.0641 107.896 18.9998 107.994C19.1023 107.931 19.8567 107.998 19.9998 107.994C19.8637 107.867 20.1939 107.998 19.9998 107.994C19.9509 107.804 20.1302 108.128 19.9998 107.994H20.9998C20.9356 107.598 20.2435 107.262 19.9998 106.994C19.7562 106.728 20.386 106.998 19.9998 106.994C19.6843 106.998 19.2104 106.821 18.9998 106.994C18.7855 107.165 18.0972 107.775 17.9998 107.994C17.9394 108.108 18.0297 107.807 17.9998 107.994C17.9725 108.18 17.9998 109.444 17.9998 109.994C17.9998 110.534 17.9725 110.803 17.9998 110.994C17.9782 110.927 18.0145 111.095 17.9998 110.994C17.9706 110.922 18.0234 111.058 17.9998 110.994C18.0972 111.212 18.7855 111.827 18.9998 111.994C19.2104 112.167 19.685 111.985 19.9998 111.994C20.4082 111.985 20.7301 111.311 20.9998 110.994C21.2676 110.674 20.9928 110.467 20.9998 109.994V108.994H19.9998V109.994C19.996 110.29 20.1531 110.812 19.9998 110.994C19.8459 111.184 20.2358 110.994 19.9998 110.994C19.8567 110.994 19.1023 111.065 18.9998 110.994C18.8955 110.933 19.0641 111.091 18.9998 110.994C18.921 110.892 19.0253 110.157 18.9998 109.994C18.9706 109.829 18.9998 110.458 18.9998 109.994C18.9998 109.529 18.9706 109.163 18.9998 108.994C19.0253 108.834 18.921 108.096 18.9998 107.994Z" fill="#5B5B5B"/>
<path d="M30 107.001V112.001H33V111.001H31V107.001H30Z" fill="#5B5B5B"/>
<path d="M40 107.001H39V112.001H40V107.001Z" fill="#5B5B5B"/>
<path d="M49 111.001L48 107.001H47V112.001H48V108.001L49 112.001H50V107.001H49V111.001Z" fill="#5B5B5B"/>
<path d="M60 108.001V107.001H57V112.001H60V111.001H58V110.001H60V109.001H58V108.001H60Z" fill="#5B5B5B"/>
<path d="M74 112.001V107.001H73V109.001H72V107.001H71V112.001H72V110.001H73V112.001H74Z" fill="#5B5B5B"/>
<path d="M84 108.001V107.001H81V112.001H84V111.001H82V110.001H84V109.001H82V108.001H84Z" fill="#5B5B5B"/>
<path d="M92 110.001C92.5219 109.761 92.9909 108.669 93 108.001C92.9863 107.547 92.259 107.248 92 107.001C91.7813 106.788 92.3443 107.001 92 107.001H90V112.001H91V110.001L92 112.001H93L92 110.001ZM91 109.001V108.001H92C91.8972 107.9 92.2011 108.001 92 108.001C91.9961 107.744 92.1341 108.114 92 108.001C92 108.215 92.1119 108.852 92 109.001C91.8842 109.156 92.2323 108.996 92 109.001H91Z" fill="#5B5B5B"/>
<path d="M100 112.001H103V111.001H101V110.001H103V109.001H101V108.001H103V107.001H100V112.001Z" fill="#5B5B5B"/>
<path d="M6 99.0015C5.65433 99.7163 5.75921 100.001 5 100.001C4.24009 100.001 3.43594 99.5124 3 99.0015C2.56406 98.4913 2 97.8556 2 97.0015C2 96.1474 2.56406 95.5124 3 95.0015C3.43594 94.4913 4.24009 94.0015 5 94.0015C5.75921 94.0015 5.65433 94.2866 6 95.0015H9C8.68932 93.9803 7.7858 93.5771 7 93.0015C6.2142 92.4258 6.00972 92.0015 5 92.0015C3.69639 92.0015 1.90196 92.0593 1 93.0015C0.0980412 93.9436 0 95.5529 0 97.0015C0 98.45 0.0980412 100.059 1 101.001C1.90196 101.944 3.69569 102.001 5 102.001C6.00972 102.001 6.2142 101.577 7 101.001C7.7858 100.426 8.68932 100.023 9 99.0015H6Z" fill="#5B5B5B"/>
<path d="M26 97.0015C26 95.5549 25.9596 93.9431 25 93.0015C24.0404 92.0606 22.4045 92.0015 21 92.0015C19.5947 92.0015 17.9687 92.0606 17 93.0015C16.0313 93.9423 16 95.5549 16 97.0015C16 98.4481 16.0306 100.055 17 101.001C17.9687 101.947 19.5992 102.001 21 102.001C22.4 102.001 24.0358 101.948 25 101.001C25.9649 100.055 26 98.4481 26 97.0015ZM23 99.0015C22.5318 99.5117 21.7838 100.001 21 100.001C20.2162 100.001 19.4682 99.5117 19 99.0015C18.5318 98.492 18 97.8544 18 97.0015C18 96.1485 18.5318 95.5117 19 95.0015C19.4682 94.492 20.2162 94.0015 21 94.0015C21.783 94.0015 22.5311 94.492 23 95.0015C23.4682 95.5117 24 96.1485 24 97.0015C24 97.8544 23.4682 98.492 23 99.0015Z" fill="#5B5B5B"/>
<path d="M43 92.0015H40L38 98.0015L35 92.0015H32V101.001H34V96.0015L37 101.001H38L41 96.0015V101.001H43V92.0015Z" fill="#5B5B5B"/>
<path d="M52 98.0015H54C54.6371 98.0015 54.5333 97.1857 55 97.0015C55.4667 96.8179 55.7645 97.2917 56 97.0015C56.4447 96.4376 57 95.609 57 95.0015C57 94.2408 56.5925 93.5397 56 93.0015C55.4068 92.4632 55.0641 92.0015 54 92.0015H50V101.001H52V98.0015ZM52 94.0015H54C53.7992 93.7964 54.3316 94.0015 54 94.0015C54.2008 94.2065 55 94.6807 55 95.0015C55 95.3222 54.1959 95.8047 54 96.0015C53.8034 96.1982 54.3401 96.0015 54 96.0015H52V94.0015Z" fill="#5B5B5B"/>
<path d="M69 92.0015H66L63 101.001H65L66 99.0015H69L70 101.001H72L69 92.0015ZM66 98.0015L67 95.0015L69 98.0015H66Z" fill="#5B5B5B"/>
<path d="M87 101.001V92.0015H85V98.0015L81 92.0015H79V101.001H81V95.0015L85 101.001H87Z" fill="#5B5B5B"/>
<path d="M99 96.0015L97 92.0015H94L97 98.0015V101.001H100V98.0015L103 92.0015H100L99 96.0015Z" fill="#5B5B5B"/>
</svg>
